# xmcd
#
# Track frame offsets: 
#        150
#        19157
#        34712
#        52042
#        68198
#        85205
#        99627
#        123252
#        139420
#        158747
#        176415
#        194535
#        215422
#        234459
#        256002
#
# Disc length: 3608 seconds
#
# Revision: 2
# Processed by: cddbd v1.5.2PL0 Copyright (c) Steve Scherf et al.
# Submitted via: ExactAudioCopyFreeDBPlugin 1.0
#
DISCID=ce0e160f
DTITLE=Brantley Gilbert - Halfway To Heaven (Deluxe Edition)
DYEAR=1900
DGENRE=Country
TTITLE0=Hell On Wheels
TTITLE1=Bending The Rules And Breaking The Law
TTITLE2=Back In The Day
TTITLE3=My Kind Of Crazy
TTITLE4=Kick It In The Sticks
TTITLE5=Halfway To Heaven
TTITLE6=Saving Amy
TTITLE7=Country Mus Be Country Wide
TTITLE8=Take It Outside
TTITLE9=Them Boys
TTITLE10=Fall Into Me
TTITLE11=Dirt Road Anthem
TTITLE12=More Than Miles
TTITLE13=You Don't Know Her Like I Do
TTITLE14=Hell On An Angel
EXTD=
EXTT0=
EXTT1=
EXTT2=
EXTT3=
EXTT4=
EXTT5=
EXTT6=
EXTT7=
EXTT8=
EXTT9=
EXTT10=
EXTT11=
EXTT12=
EXTT13=
EXTT14=
PLAYORDER=
